# xmcd
#
# Track frame offsets:
#	150
#	12609
#	31318
#	48036
#	64370
#	86601
#	102841
#	117635
#	128648
#	145020
#	162231
#	174623
#	194868
#
# Disc length: 2788 seconds
#
# Revision: 1
# Processed by: cddbd v1.5.2PL0 Copyright (c) Steve Scherf et al.
# Submitted via: audiograbber 1.83.01
#
DISCID=b80ae20d
DTITLE=Little Bob Blues Bastards - Break Down The Wall
DYEAR=2012
DGENRE=Blues-rock
TTITLE0=Break Down The Walls
TTITLE1=Run You Off The Hill
TTITLE2=Evil (Is Goin' On)
TTITLE3=Circumstances
TTITLE4=The Rain Song
TTITLE5=I Wanna Be Free
TTITLE6=Feel Like A Bastard
TTITLE7=Nobody But You
TTITLE8=Mean Game
TTITLE9=Who's Been Talking
TTITLE10=I Feel So Good
TTITLE11=The Brokenhearted Boy
TTITLE12=Heartbreak Hotel
EXTD=
EXTT0=
EXTT1=
EXTT2=
EXTT3=
EXTT4=
EXTT5=
EXTT6=
EXTT7=
EXTT8=
EXTT9=
EXTT10=
EXTT11=
EXTT12=
PLAYORDER=
